<?xml version="1.0" encoding="UTF-8"?>
<!-- Created with Inkscape (http://www.inkscape.org/) -->
<svg width="62mm"  version="1.1" viewBox="0 0 62 59" xmlns="http://www.w3.org/2000/svg" xmlns:cc="http://creativecommons.org/ns#" xmlns:dc="http://purl.org/dc/elements/1.1/" xmlns:rdf="http://www.w3.org/1999/02/22-rdf-syntax-ns#">
 <metadata>
  <rdf:RDF>
   <cc:Work rdf:about="">
    <dc:format>image/svg+xml</dc:format>
    <dc:type rdf:resource="http://purl.org/dc/dcmitype/StillImage"/>
    <dc:title/>
   </cc:Work>
  </rdf:RDF>
 </metadata>
 <g transform="translate(0,-238)">
  <path d="m23.618 238.41c-3.8743 0.75595-3.0238 8.5049 1.3229 5.1976 4.3467-3.3073-1.3229-5.1976-1.3229-5.1976zm21.021 1.9714c-2.9417 0.18219-5.677 6.3267-8.5473 7.7618-3.4018 1.7009-0.85044-5.1027-3.3073-6.6146-2.4568-1.5119-2.9294 0.56696-5.3862 7.276-2.4568 6.7091-5.103 0.18862-5.103 0.18862-6.8981-18.899-14.363-1.3229-6.9923 4.6302 7.3706 5.9531 6.2364 5.8586 1.7007 5.9531-4.5357 0.0945-13.04-6.5197-13.512 3.2132-0.47247 9.7329 23.624-1.6068 15.214 6.8032-8.41 8.41-10.772-2.4569-16.631 4.5356-5.8586 6.9926 4.6303 4.8193 14.647 3.4019 10.016-1.4174-4.3467 13.985 1.3229 15.686 5.6696 1.7009 8.3156-8.7876 15.403-11.433 7.0871-2.6458 5.3861 3.7799 11.15 9.4496 5.7641 5.6696 14.268-4.7248 6.1417-8.0321-8.1265-3.3073-9.2604-5.6699-8.599-8.2212 0.66146-2.5513 3.4964 0.28355 8.6935-1.2284 5.1972-1.5119 1.2284-2.6459-3.3073-4.0633s-1.3229-7.8428 5.9531-5.6694c7.276 2.1734 9.9222-11.434-0.94465-8.2212s-11.151 0.28348-8.9772-3.9688 6.3312-8.0317 2.7404-10.867c-0.56106-0.44294-1.113-0.61406-1.6578-0.58033zm-39.003 11.464c-0.67421 3e-3 -1.2004 0.0775-1.2004 0.0775-1.9844 2.5513 2.1737 5.6695 3.7801 2.4567 1.1044-2.2088-1.0964-2.5418-2.5797-2.5342zm52.845 18.841c-0.73593 0.015-1.3172 0.13488-1.3172 0.13488-2.1734 2.5513 1.7953 8.5992 3.8742 3.6856 1.4292-3.3782-0.93791-3.8534-2.5569-3.8204zm-23.638 14.574c-4.3335-0.14293-4.5108 15.432 1.7213 10.13 6.3311-5.3862-1.512-10.111-1.512-10.111-0.0709-0.0103-0.14051-0.0163-0.20929-0.0186z" fill="currentColor" opacity=".98"/>
 </g>
</svg>
